<?xml version="1.0" encoding="utf-8"?>

<!DOCTYPE svg PUBLIC "-//W3C//DTD SVG 1.1//EN" "http://www.w3.org/Graphics/SVG/1.1/DTD/svg11.dtd">
<svg version="1.1" id="Layer_1" xmlns="http://www.w3.org/2000/svg" xmlns:xlink="http://www.w3.org/1999/xlink" x="0px" y="0px"
	 viewBox="0 0 2609.694 1125.792" enable-background="new 0 0 2609.694 1125.792" xml:space="preserve">
<path d="M2582.563,562.665c0.592,0.192,0.952,0.308,1.062,0.343l1.222-3.808c-0.174-0.056-0.987-0.318-2.367-0.767l-1.671-84.743
	c0.75,0.27,1.502,0.547,2.252,0.817l1.351-3.763c-124.083-44.596-248.978-96.136-376.554-155.446l-0.034-1.243l-2.494,0.068
	c-24.713-11.506-49.526-23.297-74.456-35.395l-0.031-1.164l-2.251,0.061c-94.299-45.815-190.246-95.898-288.587-150.604
	c0.322-0.715,0.688-1.408,1.152-2.039c-0.247-0.151-0.495-0.302-0.742-0.453c0.28-2.259,0.6-4.499,0.96-6.758
	c-2.699-2.579-6.818-4.539-7.018-8.718c-3.539-18.896,0.02-39.191-8.538-57.046c-2.26-10.477-2.08-21.395-4.059-31.972
	c-0.101-0.021-0.369-1.217-0.369-1.217l-3.834,0.319c-0.412-0.09-14.343,1.195-14.343,1.195c1.54,7.358,5.809,22.258,1.471,35.094
	c-5.859,19.076-3.199,39.231-4.939,58.746c-11.12,12.537-18.6,12.422-81.692,36.92c-10.29,3.996-23.442,6.599-32.581,12.848
	c-1.04-7.578-0.94-15.236-1.18-22.855c-0.26-8.178-2.779-16.036-4.039-24.074c-1.082-8.608-3.919-6.763-6.118-26.866l1.522-19.781
	l-17.386-0.285c0,0,1.064,17.698,1.1,17.696c-0.956,8.719-1.432,17.5-4.192,25.896c-4.059,16.016-1.799,32.572-3.279,48.788
	c-9.743,13.999-36.5,20.951-52.307,26.234c-43.694,20.033-164.397,60.675-173.059,64.305c0,0-233.104,81.927-668.7,161.262
	c-373.424,62.433-534.71,66.54-665.441,77.182c-0.011-0.058-0.021-0.117-0.032-0.176c-6.051,0.872-9.758-0.337-11.715-0.487
	c0.011,0.107,0.018,0.215,0.03,0.322c-18.675-0.6-37.211,1.58-55.827,2.239v12.377c20.655-0.36,41.23-2,61.825-3.039
	c4.781-1.405,9.63-2.391,14.52-3.114l0.287,20.201c-4.543,0.346-9.077,0.797-13.587,1.529c-0.8-4.179-1.6-8.358-2.479-12.517
	c-2.319,0.6-4.759,0.88-7.018,1.8c-2.699,2.779-3.119,6.958-4.479,10.457c-16.256,2.399-32.692,3.139-49.068,4.359v8.158
	c16.996-2.959,34.332-3.019,51.468-4.519c0.54,7.918,0.6,15.856,0.32,23.794c-17.256,0.64-34.532,0.2-51.788,0.28v21.055
	c14.696,0.76,29.393,1.12,44.109,0.92c-3.339,5.359-6.498,10.937-11.017,15.436c-10.937,1.56-22.075,0.26-33.092,0.54v77.861
	c0.073,0.005,303.899,6.43,344.098,8.178c-0.14-1.2-0.44-3.559-0.58-4.739c-3.099-2.22-6.099-4.559-8.918-7.118
	c9.978,0.02,19.935,1.46,29.633,3.819c-4.699,1.28-9.498,2.04-14.317,2.719c0,1.3-0.02,3.899-0.02,5.219
	c7.998,0.26,15.976,0.34,23.974,0.12c16.056-0.4,31.992,2.279,48.049,1.96c18.456-0.16,36.911,0.18,55.367,0.76
	c23.494,2.959,47.309-0.48,70.803,2.619c23.874,1.36,47.829,0.3,71.743,0.6c0.12-4.339-4.579-11.037,0.72-13.457
	c9.838-1.66,19.935-0.2,29.873-0.38c-0.1,3.059-0.18,6.119-0.28,9.198c-9.438,0.14-18.875,0.68-28.293,0.84
	c0,1.42,0.02,4.279,0.02,5.699c13.917,0.16,27.853,0.22,41.75,0.74c20.655,2.519,41.47,0.92,62.205,1.3v-5.559
	c-6.818-0.16-14.156,0.14-19.775-4.419c12.197-3.519,24.954,0.46,36.911,3.279c-4.419,0.42-8.818,0.66-13.217,0.96
	c0.06,2.499,0.12,5.019,0.2,7.538c20.875,0.96,41.83-0.94,62.625,1.58c10.358,1.02,20.775,0.62,31.153,0.28
	c-0.02-1.52-0.04-4.539-0.06-6.058c-9.098-0.8-18.236-1.2-27.253-2.659c8.698-10.698,24.454-7.598,36.471-6.458
	c-1.54,5.638-4.719,10.537-7.918,15.336c12.377,0.12,24.754,0.2,37.051,1.68c9.378-0.46,18.736-1.02,28.133-0.82
	c-1.18-3.499-2.419-6.958-3.579-10.457c11.757-1.28,23.354,1.38,34.292,5.579c-9.658,0.32-19.335,0.26-28.993,0.46
	c0.02,1.42,0.08,4.239,0.1,5.659c21.395,2.759,43.05,0.7,64.465,3.119c8.498,0.78,17.036,0.14,25.514-0.68
	c-0.14-1.26-0.42-3.759-0.56-5.019c-2.739-1.44-8.738-0.58-7.458-5.179c9.978-3.739,20.815-4.659,31.392-3.659
	c0.1,2.859,0.18,5.759,0.26,8.658c-3.299,0.48-6.578,0.94-9.858,1.42c0.02,1.36,0.02,4.119,0.02,5.499
	c13.797,0.58,27.673-0.72,41.43,1.04c12.117,1.54,24.394,1.04,36.591,0.88c0-1.32-0.02-3.959-0.02-5.279
	c-5.259-0.5-10.617-1.08-15.336-3.619c11.017-5.559,23.274-2.259,34.252,1.42c-1.72,0.66-5.159,1.979-6.878,2.639
	c-0.08,1.36-0.22,4.079-0.3,5.439c14.956,3.039,30.313,0.18,45.369,2.459c10.238,1.46,20.595,1.06,30.893,0.96
	c0-1.34-0.02-3.999-0.02-5.339c-5.919-0.44-11.857-1.26-17.296-3.739c10.797-4.419,22.555-5.559,34.132-4.719
	c-1.58,4.539-3.459,8.978-5.279,13.437c11.517,0.34,22.894,2.839,34.452,2.44c11.377-0.38,22.575,2.179,33.932,2.019
	c12.957,0.24,26.014-0.98,38.891,1.06c11.397,1.56,22.995,1.08,34.452,0.34c-0.1-2.979-0.26-5.938-0.42-8.898
	c9.338-0.86,18.516-5.359,27.933-3.739c0.98,2.879,1.2,5.979,1.64,9.018c-8.678,0.2-17.316-0.76-25.934-1.54
	c-0.24,1.64-0.72,4.919-0.96,6.558c0.024,0.003,293.577,13.2,294.49,13.197c7.998-0.34,15.456,3.419,20.875,9.138
	c3.525,13.793-2.414,61.057,4.319,91.578c2.14,8.658-1.54,17.016-2.559,25.494c-0.1,14.097,6.139,28.313,1.12,42.21
	c-5.259,0.02-10.518-0.18-15.756-0.46c-1.14-8.658-2.779-17.676-0.3-26.254c4.459-13.357-3.899-26.974-0.82-40.55
	c1.52-20.895,2.719-41.89,0.48-62.785c-0.84-7.798-10.378-8.478-15.556-12.437c-3.699-5.759-6.458-12.157-11.037-17.316
	c-3.979-0.8-8.038-0.7-12.037-0.86c-2.319,5.919-3.839,12.377-7.478,17.656c-6.338,3.719-12.977,7.218-19.755,10.018
	c-11.077,1.16-22.235,1.56-33.352,2.519c-0.9,10.138-0.66,20.315-0.18,30.473c-1.38-0.42-4.159-1.24-5.539-1.64
	c-0.34-10.318-1.06-20.615-2.879-30.773c-13.557-0.18-27.134,0.3-40.69-0.52c-0.54-7.818-0.68-15.636-1.02-23.434
	c-13.477-4.559-27.833-4.499-41.75-2.299c-0.46,8.498-0.44,17.016-1,25.514c-12.697,4.939-26.694-0.48-39.291,5.479
	c2.079,23.634,1.54,47.449,3.979,71.063c-0.56,6.138-6.398,10.078-9.178,15.296c-5.999,0.74-13.037,1.18-16.676,6.758
	c-3.479,6.439-0.96,14.177-2.799,21.055c-2.479,4.139-6.778,7.238-7.778,12.157c-1.64,7.038-2.839,14.197-5.539,20.935
	c-8.938-0.04-17.876-0.08-26.794-0.22c-2.739-6.538-8.178-10.977-13.077-15.776c-3.039-6.338-6.039-12.737-9.098-19.075
	c-2.539-8.598,1-17.556,0.02-26.334c-0.96-9.558-0.76-19.175-0.98-28.753c0.5-5.979-5.219-9.478-7.238-14.497
	c-1.839-5.959-2.159-12.257-3.699-18.276c-3.719-6.958-12.337-4.739-18.796-5.339c-1.06-2.419-2.079-4.859-3.079-7.278
	c-5.679-0.54-11.297-1.4-16.856-2.539c0.02-8.698-0.92-17.356-2.599-25.894c-7.438-2.139-15.217-3.399-22.955-2.859
	c-4.599,1.72-8.598,4.659-12.657,7.318c-0.04,8.338,0.02,16.656-0.06,24.994c-4.359,0.32-8.798,0.2-13.037,1.32
	c-4.119,2.779-7.078,6.938-11.217,9.678c-5.918,0.3-11.857-0.48-17.756-0.66c-1.32,7.378-1.2,15.116-4.219,22.115
	c-4.119,9.198-2.179,19.555-4.419,29.173c-2.639,8.048-21.468,28.881-15.916,48.209c-2.919,0.36-5.819,0.72-8.698,1.1
	c-1.5,4.179-2.979,8.358-4.599,12.477c-1.795-31.923,5.735-32.767-26.074-33.092c-0.2-7.638,0.3-15.376-1.02-22.955
	c-0.879-5.646-7.512-5.562-44.649-2.739c-0.38-4.639-0.78-9.278-1.18-13.917c-1.28-9.198,1.42-18.516-0.96-27.613
	c-25.588-5.883-19.903-9.087-33.892-15.876c-0.84-9.158,2.099-20.635-5.779-27.454c-9.578-5.379-20.155,1.26-30.093,1.86
	c-0.58,9.358,0.08,18.776-1.08,28.113c-3.079-19.336-3.619-38.951-3.459-58.486c-16.896,0.08-33.512-3.399-50.368-3.959
	c-2.279,8.558,0.3,18.516-4.539,26.194c-8.058,2.139-16.876-0.02-24.594,3.459c-2.019,17.616,0.86,35.451-0.74,53.147
	c-9.838,0.48-19.695,0.38-29.533,0.4c-0.06,8.578-0.06,17.176-0.32,25.754c-16.316,4.119-32.932,7.478-49.868,6.299
	c-2.961,13.543,0.734,21.902-1.58,63.445c-5.958,0.98-11.897,2.06-17.876,2.859c-3.079-20.415-2.119-41.01-2.839-61.565
	c-18.376-0.82-36.751-0.64-55.127-1.04c-1.46-4.699-2.599-9.518-4.359-14.117c-3.417-9.528-6.276-3.65-10.877-25.674
	c-7.478-0.02-14.956,0.08-22.435,0.14c-0.48,2.519-0.94,5.039-1.38,7.598c-2.519,0.64-4.999,1.32-7.478,2
	c-1.58,5.419-2,11.677-6.598,15.576c-5.479,5.119-9.638,11.377-11.937,18.536c-7.758,1.08-15.536,1.939-23.354,2.419
	c0,17.236-0.04,34.492,0.04,51.748c-3.019,1.12-6.059,2.22-9.098,3.339c-0.56,4.799-1.04,9.638-1.52,14.456
	c-3.779,0.1-7.538,0.18-11.277,0.26c-0.1-5.379-0.18-10.737-0.26-16.096H643.2c-0.48,5.399-1.1,10.797-2.059,16.136
	c-3.559-0.06-7.098-0.08-10.637-0.12c-1.46-9.778-1.44-19.695-1.86-29.553c-4.319-0.38-8.718-0.36-12.917-1.5
	c-5.359-1.56-8.838-6.259-13.417-9.138c-5.139,1.54-8.558,6.039-12.757,9.098c-1.18-5.639-2.399-11.257-3.399-16.916
	c-8.498-0.02-16.996-0.02-25.474,0.08c-1.46,6.398,0.26,14.277-4.439,19.455c-6.239,0.86-12.537,0.54-18.796,0.74
	c-0.4,7.618-0.08,15.336-1.32,22.914c-1.52,4.379-7.418,4.659-9.738,8.378c-1.28,2.659-1.9,5.579-2.759,8.418
	c-4.199-0.04-8.398-0.12-12.597-0.22c-0.36-21.035-1.04-42.07-2.919-63.025c-2.239-3.479-7.478-3.059-11.017-4.539
	c-1.3-7.618-2.239-15.276-2.879-22.955c-7.658,0.02-15.316,0.66-22.955,1.46c-0.5,7.138-0.56,14.297-0.58,21.455
	c-6.958,1.52-14.557,5.139-21.375,1.24c-7.389-22.259,2.035-59.807-7.078-66.924c-7.258-0.98-14.617-0.44-21.895-0.48
	c-1.1-5.759-1.64-11.597-2.019-17.436c-3.999-2.519-7.918-5.159-11.777-7.878c-4.919,3.159-10.058,5.959-15.436,8.278
	c-0.22,3.479-0.44,6.958-0.64,10.458c-7.638,4.079-15.156,8.718-23.934,9.818c0.26,12.417,0.32,24.854,0.18,37.271
	c-8.998,0.62-17.976-0.5-26.914-1.14c-1.08-6.938-0.14-14.517-3.639-20.855c-4.459-5.959-12.897-4.259-19.355-4.699
	c-6.458,0.54-15.196-1.58-19.435,4.779c-3.479,6.279-2.419,13.777-3.239,20.695c-5.139,0.38-10.277,0.68-15.436,0.94
	c-4.299-17.796,0.48-36.411-3.999-54.167c-1.36-5.179-1.959-10.497-2.44-15.816c-4.779-0.2-9.558-0.44-14.316-0.8
	c-1.24-8.098-3.059-16.236-7.378-23.294c-7.118,0.62-14.836-0.94-21.475,2.239c-3.959,6.198-3.999,13.937-5.139,21.015
	c-4.739,0.66-9.498,1.28-14.237,1.9c-0.98,11.577-3.479,23.034-2.859,34.712c0.28,39.99,2.759,79.961,1.72,119.971
	c-0.66,9.138,2.599,19.255-2.659,27.513c-1.76-11.497-1.22-23.174-2.159-34.752c-8.138-0.92-16.336-1.54-24.314-3.479
	c-8.438-2.519-15.956-7.778-24.794-8.998c-3.699-0.76-7.778-0.86-10.917-3.199c-2.379-3.339-2.899-7.558-4.019-11.397
	c-4.839,0.36-10.098-0.02-14.197,3.039c-5.919,4.559-13.657,3.359-20.615,4.159c-5.719,0.16-10.398,4.439-16.136,4.319
	c-46.159-0.352-38.895,4.279-40.07-25.114c-7.938-0.08-15.896-0.1-23.834-0.1v231.965h2559.388V884.747
	c-10.957-6.039-23.454-5.319-35.412-7.158c-3.799,1.62-6.938,4.479-10.797,5.939c-5.359-0.4-10.238-4.199-15.696-2.859
	c-4.939,0.96-10.038,0.48-14.896,1.62c-6.458,2.219-12.337,5.819-18.855,7.798c-4.979-23.094-4.019-46.989-4.459-70.483
	c-7.258-0.36-14.537-0.78-21.635-2.339c-0.24-3.399-0.44-6.758-0.62-10.138c-29.103,0.153-24.893-0.906-32.492,11.337
	c-9.298,0.38-18.096,3.539-27.094,5.519c0.96,16.336,0.56,32.732,1.659,49.068c0.58,8.458-1.06,16.816-1.719,25.234
	c-5.339-2.619-11.237-3.279-17.056-2.26c-2.839-2.499-5.519-5.419-9.158-6.698c-4.379,0.56-7.718,3.899-11.417,5.999
	c-2.052-26.731,1.625-57.477-13.117-74.042c0.4-9.418,1-18.835,0.76-28.253c-8.318-1.1-18.516-1.86-24.014,5.938
	c-6.898,6.099-2.479,15.616-1.699,23.274c-4.439,0.92-9.778,0.3-13.057,3.959c-5.119,4.579-10.837,10.957-18.416,9.338
	c-7.038-3.559-14.616-7.338-19.375-13.757c-3.119-9.958-8.738-19.335-7.758-30.153c-9.418-2.059-18.256-6.019-27.594-8.258
	c-6.618-1.44-11.937-5.859-17.916-8.758c-0.08-5.179-0.14-10.358-0.18-15.516c-20.755-0.54-41.57-0.14-61.945,4.139
	c0.04-5.879,0.12-11.757,0.36-17.636c9.878,0.18,19.695,1.4,29.593,1.4c20.555-0.66,40.87,3.419,61.446,2.06
	c0.34-1.54,0.98-4.619,1.32-6.139c2.579,0.08,5.199,0.2,7.838,0.3c1.28,2.539,2.479,5.179,4.219,7.518
	c14.417,0.82,28.893,0.26,43.33,0.3c4.959,0.46,8.398-3.539,12.397-5.739c3.839-2.439,8.598-1.56,12.917-1.8
	c-1.38,3.179-2.719,6.359-3.979,9.578c17.596-0.8,34.992,2.719,52.607,1.939c14.037-0.54,27.873,2.919,41.95,2.04
	c14.037-0.74,27.913,2.039,41.93,1.78c12.017,0.24,24.054,0.2,36.092,0.16c10.698-0.24,21.195,2.099,31.892,2.359
	c16.616,1.84,33.372,0.8,50.048,1.78V625.549c-0.143,0.11-0.284,0.214-0.427,0.324L2582.563,562.665z M47.562,660.601
	c-2.359,3.239-9.258-1.06-4.499-3.479C45.123,655.942,49.142,658.042,47.562,660.601z M487.827,462.987l0.25,13.421
	c-2.686,0.446-5.345,1.068-7.958,1.996c-21.955,3.919-44.209,5.999-66.204,9.778c-5.723,1.298-11.542,0.241-17.278,0.236
	l-0.162-14.378C426.877,470.038,457.276,465.706,487.827,462.987z M388.401,562.644c-37.786,2.35-44.123-1.58-70.65-2.22
	l-0.291-53.903c1.376-0.234,60.799-6.837,71.299-7.415C388.758,499.107,389.289,550.784,388.401,562.644z M292.45,485.197
	c16.913-2.76,87.975-9.92,96.034-10.285l0.169,14.928c-14.911,4.833-95.088,11.398-96.203,11.574V485.197z M311.467,507.635
	l0.285,52.722c-0.991,0.001-1.982-0.006-2.972,0.008c-2.099-3.199-10.138-7.038-11.997-5.759
	c-0.469-12.746-4.332-44.289-4.332-44.289C298.893,510.188,305.174,508.882,311.467,507.635z M201.338,551.516
	c-1.958,2.01-3.564,4.398-5.232,6.65c-1.36-2.219-3.399-4.339-3.239-7.118c-0.32-10.577-0.22-21.175,0.36-31.732
	c2.455,0.091,4.903,0.401,7.357,0.553L201.338,551.516z M190.435,493.972c2.048-0.343,5.449-0.79,9.772-1.298l0.161,18.093
	c-3.385,0.281-6.761,0.707-10.139,1.089L190.435,493.972z M194.867,584.779c2.159,1.48,3.399,3.879,5.039,5.879
	c-0.92,1.18-2.799,3.539-3.739,4.719c-2.119-2.24-4.279-4.459-6.398-6.678C191.428,587.338,193.127,586.019,194.867,584.779z
	 M87.072,529.012c4.876-0.797,9.818-0.649,14.734-0.753l0.734,19.089c-0.257,0.02-0.515,0.039-0.772,0.059
	c-1.08,2.739-2.18,5.479-3.319,8.198c-3.359-0.62-7.358-0.14-9.658-3.219C86.932,544.749,86.753,536.83,87.072,529.012z
	 M87.352,579.94c4.319,2.359,6.039,7.038,7.878,11.297c-2.859,0.18-5.699,0.34-8.558,0.5
	C86.833,587.798,87.013,583.859,87.352,579.94z M78.734,580.08c0.04,4.099-0.06,8.198-0.28,12.317c-2.699-0.5-5.399-1-8.078-1.5
	C71.536,586.139,73.736,581.7,78.734,580.08z M102.529,662.98c-12.097-0.02-24.234,0.72-36.331,0.02
	c0.62-3.459-0.04-9.658,4.899-9.778c11.317,0.28,23.814-2.499,34.052,3.639C104.268,658.901,103.409,660.941,102.529,662.98z
	 M107.179,498.81c13.597-1.455,27.444-1.297,41.038-2.49c11.991-1.845,24.144-1.104,36.211-1.757l-0.207,18.005
	c-16.316,3.117-33.009,2.447-49.42,4.647c-9.068,1.28-18.211,1.605-27.334,2.144L107.179,498.81z M185.149,593.317
	c-3.179,0.02-6.358,0-9.558-0.04c1.959-4.279,4.419-8.378,8.278-11.217C184.389,585.799,184.809,589.558,185.149,593.317z
	 M108.527,546.891l-0.729-18.963c2.315-0.246,4.615-0.66,6.889-1.376c22.075-2.619,44.269-3.819,66.444-5.639
	c0.74,11.177,1.759,22.375,1.36,33.572c-2.44,4.039-7.738,2.259-11.617,2.759c-9.438,0.48-18.596-2.299-28.013-2.159
	c-10.477-0.02-20.955,0.14-31.433,0.02c-0.92-2.759-1.86-5.499-2.859-8.218C108.554,546.889,108.54,546.89,108.527,546.891z
	 M135.321,664.94c3.539-4.619,9.338-4.039,14.497-3.799C146.618,666.28,140.46,665.08,135.321,664.94z M142.699,593.877
	c-10.697-1.48-21.775,0.8-32.192-2.639c0.36-4.759,0.9-9.498,1.38-14.257c20.975,0.06,41.93,0.04,62.845,0.82
	c-3.059,6.319-6.518,13.977-14.017,15.796C154.736,594.117,148.678,594.697,142.699,593.877z M202.865,659.841
	c-4.399-0.18-8.778-0.32-13.177-0.18c2.159,4.419,7.618,3.699,11.637,5.019c-11.657,0.54-23.334,0.4-34.992,0.4
	c0.02-1.08,0.06-3.259,0.08-4.339c5.499,0.24,10.997,0.76,16.336,2.16c4.759-6.818,13.077-6.178,20.415-5.939L202.865,659.841z
	 M206.197,491.994c26.006-2.858,71.985-6.894,80.254-6.403v16.837c-9.029,1.597-63.709,7.869-80.091,8.041L206.197,491.994z
	 M206.575,519.486c17.601-3.784,76.817-8.649,79.877-8.841c0,0,1.748,34.368,0.013,48.06c-23.234,0.84-46.489,0.38-69.743,0.38
	c-5.19,0.675-7.229-4.136-9.397-8.138L206.575,519.486z M289.504,595.477c-3.659,0.86-7.358,1.5-11.057,2.079
	c2.14-4.559,4.479-9.058,7.718-12.957C287.365,588.198,288.464,591.817,289.504,595.477z M241.796,663.36
	c2.419-1.78,3.799-1.3,4.179,1.44C243.555,666.559,242.175,666.08,241.796,663.36z M234.837,595.217
	c-8.238-0.3-17.716,1.1-24.634-4.319c-0.26-3.919,0.14-7.838,0.3-11.757c54.89-0.124,36.044,2.469,66.644,6.419
	c-2.959,3.799-5.659,8.498-10.737,9.738C255.972,597.336,245.355,594.957,234.837,595.217z M264.09,666.999
	c0.24-2.699,0.48-5.419,0.74-8.118c11.037-3.759,22.695-0.76,33.932,0.36c0.06,2.759,0.12,5.519,0.16,8.298
	C287.305,668.299,275.707,666.659,264.09,666.999z M341.772,668.539c-1.28,1.78-6.318,1.859-5.879-1.02
	C337.193,665.76,342.251,665.58,341.772,668.539z M364.846,599.135c-14.896-0.38-30.053,1.16-44.769-1.7
	c-5.559-3.899-12.157-8.178-12.477-15.696c24.074,2.439,48.348,0.02,72.423,2.559C378.283,591.397,373.364,600.115,364.846,599.135z
	 M382.502,599.715c0.1-2.799,0.2-5.579,0.32-8.358c2.499-0.74,4.979-1.48,7.478-2.18c0.28,3.299,0.54,6.638,0.78,9.958
	C388.201,599.316,385.361,599.515,382.502,599.715z M391.46,669.359c2.399-1.8,3.779-1.32,4.139,1.44
	C393.199,672.578,391.82,672.098,391.46,669.359z M390,661.601c1.859-1.88,6.358-1.52,6.838,1.5
	C396.439,667.339,387.841,665.64,390,661.601z M396.748,498.3c18.462-4.69,37.728-5.091,56.457-8.698
	c11.739-0.701,23.302-4.73,35.049-3.665c0.233,12.532,0.943,25.07,0.393,37.603c-0.516,11.758,1.314,23.812-0.09,35.505
	c-0.36,2.999-2.399,5.459-3.719,8.098c-12.057-0.08-24.194,0.6-36.091-1.639c-15.136-2.579-30.713,2.039-45.569-2.799
	C394.88,549.477,396.748,498.3,396.748,498.3z M489.016,594.197c-0.16,2.819-0.78,12.177-5.279,7.738
	C479.739,597.856,485.837,595.536,489.016,594.197z M421.133,600.155c-7.598-0.92-10.418-8.998-13.037-15.056
	c24.334-0.58,48.648,0.92,72.983,1.34c-1.86,5.919-5.039,11.277-9.038,15.996C455.125,600.755,437.989,602.635,421.133,600.155z
	 M453.825,671.038c1.68-2.599,2.879-5.659,5.319-7.678c9.658-0.58,19.415-0.62,29.073,0.02c3.299,1.98,2.259,6.099,2.759,9.298
	C478.639,672.598,465.762,675.017,453.825,671.038z M586.108,450.186l0.21,11.389c-1.726,0.212-54.803,11.145-90.26,13.92
	l-0.251-13.491C529.356,456.292,585.107,450.314,586.108,450.186z M498.274,603.595c-1.3-3.979-0.24-7.978,1.1-11.757
	c3.439,3.159,6.039,7.098,8.218,11.197C504.473,603.235,501.374,603.414,498.274,603.595z M517.43,602.855
	c-4.899-3.719-6.818-9.738-9.218-15.116c24.094,0.62,48.209,1.18,72.263,2.239c-3.059,6.738-6.318,17.256-15.636,16.096
	C549.042,605.134,533.106,604.934,517.43,602.855z M583.794,668.779c-2.44,1.78-3.839,1.3-4.219-1.4
	C581.974,665.6,583.374,666.06,583.794,668.779z M551.602,674.518c-0.98-0.9-2.959-2.699-3.939-3.619
	c12.297-1.44,24.874,0.96,36.791,3.959C573.556,675.637,562.459,675.877,551.602,674.518z M586.691,551.878
	c-0.044,2.254-0.341,4.523-0.935,6.69c-1.373,5.011-4.333,9.476-9.421,11.934c-24.874-2.859-50.028-2.22-75.002-3.759
	c-0.56-0.56-1.72-1.68-2.299-2.239c-0.939-9.885-0.303-19.896-0.89-29.795c-0.599-10.12-1.82-20.413-1.816-30.548
	c0-1.63-0.998-19.083-0.098-19.448c4.047-1.69,8.225-3.065,12.662-3.35c15.26-1.032,61.048-10.35,77.596-10.646
	C586.988,497.845,587.22,524.796,586.691,551.878z M594.084,448.925c42.95-7.955,68.66-11.607,75.065-12.404l0.349,11.339
	c-1.884,0.363-63.701,11.847-75.196,12.905L594.084,448.925z M596.631,604.474c-0.38-3.519,0.84-6.918,1.839-10.218
	c3.459,3.799,6.319,8.158,7.098,13.357C602.449,607.014,598.71,607.394,596.631,604.474z M667.554,608.113
	c-10.657,3.199-21.895-0.6-32.792-0.08c-5.739-0.18-11.837,1.28-17.296-1.04c-4.379-4.799-7.418-10.637-11.197-15.896
	c22.255,0,44.569-0.66,66.684,2.239C672.453,598.496,673.992,606.134,667.554,608.113z M669.853,572.502
	c-9.678-0.58-19.355,1.14-29.033,0.18c-43.551-4.677-29.633,0.6-44.09-5.219c-1.58-0.875,0.341-19.027,0.223-21.317
	c-0.785-15.196-1.917-30.42-1.917-45.642c-0.195-10.543-0.389-21.085-0.584-31.628c11.444-3.149,69.447-12.606,75.281-13.402
	l3.512,113.979C672.094,570.452,671.007,571.556,669.853,572.502z M677.124,435.646c5.901-0.567,3.856-0.323,7.295-0.652
	l0.149,9.863c-0.242,0.034-6.877,1.387-7.116,1.435L677.124,435.646z M677.702,454.408c2.332-0.421,4.662-0.863,6.99-1.31
	l1.217,80.6c-3.016,12.986-0.155,26.691-1.22,39.943c-1.163-1.297-2.281-2.639-3.435-3.946L677.702,454.408z M682.21,609.653
	c-0.26-4.699-0.06-9.518,3.419-13.077c1.22,3.499,2.419,7.038,3.619,10.577C686.889,607.994,684.55,608.833,682.21,609.653z
	 M692.401,433.781c29.673-6.329,20.816-4.753,67.462-11.74l0.263,8.514c-22.396,4.943-44.895,9.63-67.575,13.117L692.401,433.781z
	 M760.379,438.795l4.132,133.879c-2.535,1.658-4.804,3.996-7.939,4.187c-11.997,1.32-23.834-2.04-35.811-1.74
	c-8.338-0.24-17.336,1.24-24.934-3.059c-1.882-7.056-3.143-119.524-3.158-120.528C715.195,447.005,737.621,441.833,760.379,438.795z
	 M694.187,611.013c-0.52-4.119-0.24-8.258,0.46-12.317c2.619,1.58,5.239,3.179,7.898,4.779c0.1,2.539,0.24,5.079,0.36,7.618
	C699.986,611.073,697.087,611.033,694.187,611.013z M720.641,611.173c-9.678,0.52-14.917-9.958-16.056-18.276
	c19.175,2.459,38.471,2.359,57.766,2.279c1.06,5.399,2.139,10.797,2.879,16.276C738.398,619.323,751.03,611.769,720.641,611.173z
	 M1649.299,177.016c-8.678,6.039-19.455,8.118-29.593,10.378C1629.204,183.055,1639.242,179.816,1649.299,177.016z
	 M1596.314,203.442l10.012,411.112c-3.275,0.296-6.54,0.723-9.814,0.977c-0.66-12.177,1.68-24.774-2.22-36.591
	c-0.208,0.014-8.44-371.77-8.44-371.77C1589.362,205.998,1592.845,204.74,1596.314,203.442z M1605.05,653.043
	c-4.119-1.76-7.858-4.439-12.177-5.699c-3.659,1.42-7.158,3.259-10.857,4.579c-0.94-5.779,2.079-10.617,5.279-15.096
	c1.72,2.259,3.379,4.599,5.259,6.758c1.9-1.34,3.739-2.739,5.539-4.219C1601.491,643.305,1604.15,647.844,1605.05,653.043z
	 M1577.9,209.525l8.532,405.637c-12.606,0.681-25.039-2.101-37.609-1.21c-5.207,0.268-10.071-1.37-14.507-3.855l-10.383-382.236
	C1541.979,221.926,1559.694,214.966,1577.9,209.525z M1518.391,629.068c2.679-0.02,5.379-0.04,8.098-0.04
	c0,4.299,0.02,8.598-0.02,12.897C1523.609,637.726,1520.93,633.447,1518.391,629.068z M1520.49,645.684
	c-3.439,1.14-6.918,0.18-10.278-0.7c0.28-3.599,0.68-7.198,1.2-10.757C1515.771,636.847,1518.21,641.326,1520.49,645.684z
	 M1516.001,230.374l10.315,379.738c-4.323,1.369-9.038,1.21-13.584,0.961c0,0-0.24,13.91-12.471-375.104
	C1505.206,234.28,1515.662,230.478,1516.001,230.374z M1437.245,255.657l6.349,341.485c-0.413-0.013-0.405,6.672,0.114,10.031
	c-5.399-0.96-13.317,2.359-16.836-2.719c-1.76-12.537-0.76-25.274-2.199-37.851c-0.127,0.019-7.138-303.937-7.138-303.937
	C1424.043,260.155,1430.621,257.841,1437.245,255.657z M1432.311,625.089h14.237c0.02,5.719-0.02,11.457-0.4,17.176
	C1439.589,638.366,1436.47,631.128,1432.311,625.089z M1435.01,641.005c-3.019,0.06-6.039,0.12-9.038,0.18
	c-1.2-3.819-1.18-7.718,0.62-11.357C1429.772,633.267,1432.491,637.067,1435.01,641.005z M1357.021,282.702l7.701,318.317
	c-2.52,1.254-5.057,2.466-7.953,2.016c-5.765-0.736-11.549-2.176-17.275-0.405l-8.5-311.921
	C1357.42,281.739,1337.9,288.115,1357.021,282.702z M1274.729,308.937l7.747,288.263c-9.654,3.879-20.864,1.263-31.102,1.696
	c-2.712-24.594-2.201-25.024-8.699-281.128C1253.332,314.694,1264.026,311.766,1274.729,308.937z M1282.647,633.567
	c-12.189,1.268-16.257,1.426-24.594-18.276c7.918,1.3,15.916,2.16,23.974,1.8C1282.227,622.57,1282.527,628.069,1282.647,633.567z
	 M767.826,420.82c3.441-0.54,6.877-1.102,10.309-1.692l0.247,7.799c-3.439,0.634-6.875,1.28-10.307,1.939L767.826,420.82z
	 M768.339,437.411c3.41-0.891,6.852-1.631,10.302-2.33c0,0,3.277,126.895,1.347,142.779c-2.721-0.874-5.107-2.363-7.435-3.943
	L768.339,437.411z M782.686,615.792c-2.859-0.94-7.678-0.94-8.178-4.699c1.64-4.039,4.459-7.418,7.098-10.837
	C783.766,605.254,785.146,610.593,782.686,615.792z M786.092,417.693c0,0,48.143-9.769,62.009-12.445l0.217,6.863
	c-7.738,1.815-11.171,4.11-61.98,13.358L786.092,417.693z M790.384,615.472c0.06-4.959,0.24-9.938,0.68-14.876
	c4.079,3.979,7.298,8.858,8.398,14.556C796.443,615.272,793.404,615.392,790.384,615.472z M851.21,618.171
	c-13.357,0.16-26.534-2.279-39.811-3.419c-6.059-4.379-8.678-11.597-12.617-17.656c18.036-0.64,35.871,3.139,53.947,2.02
	C852.81,605.494,852.83,611.932,851.21,618.171z M840.872,580.98c-16.576-1.88-33.232-2.659-49.828-4.439
	c-1.099-15.328-4.453-143.093-4.453-143.093c37.111-7.948,47.362-11.225,62-12.716l4.943,156.139
	C849.712,579.456,845.694,581.947,840.872,580.98z M856.056,403.752c5.433-1.001,10.878-1.938,16.338-2.794l0.129,5.971
	c-5.427,1.089-10.85,2.203-16.259,3.387L856.056,403.752z M856.549,419.336c5.26-1.877,10.693-3.075,16.15-4.191l2.792,129.274
	c-2.643,13.524,5.236,32.8-1.547,36.581c-4.467,0.946-8.634-0.514-12.365-2.781L856.549,419.336z M862.407,599.096
	c1.7,0.04,5.099,0.14,6.798,0.18c-1.82,4.439-3.759,8.838-6.358,12.877C862.467,607.793,862.407,603.435,862.407,599.096z
	 M871.525,620.011c-0.68-1.34-2.059-4.039-2.739-5.379c2.259-3.579,4.639-7.078,7.258-10.397c0.96,3.359,2.719,6.678,2.539,10.277
	C876.384,616.551,873.945,618.271,871.525,620.011z M880.36,399.422c18.488-5.303,37.516-8.245,56.367-11.981l0.13,5.228
	c-17.418,4.214-13.69,4.195-56.369,12.669L880.36,399.422z M889.161,620.87c-3.759-4.599-6.019-9.958-2.559-15.536
	c4.459,4.539,6.778,10.437,9.438,16.076C893.74,621.23,891.44,621.05,889.161,620.87z M928.731,621.93
	c-6.258-1.2-12.557-1.939-18.895-2.16c-7.838-3.799-12.697-11.377-16.776-18.755c9.558,1.16,19.215-0.52,28.733,1.08
	c6.159,1,12.417,1.04,18.656,1.08C940.52,621.436,942.502,622.14,928.731,621.93z M934.61,583.599
	c-10.277,0.12-20.795,0.32-30.753-2.519c-5.559-0.46-11.837,3.239-16.896-0.2c-3.6-10.272-4.67-92.021-6.298-167.419
	c5.824-1.318,37.668-9.795,56.4-12.469l4.474,179.875C939.296,582.017,937.032,583.561,934.61,583.599z M944.687,385.792
	c17.389-3.739,12.348-2.083,21.366-3.539l0.068,3.532c-14.891,3.517-6.321,2.023-21.308,5.09L944.687,385.792z M945.02,399.206
	c6.927-2.546,14.053-4.41,21.242-6.074c0.42,21.843,3.903,176.574,2.02,191.947c-6.493,0.404-13.05-0.566-18.733-3.814
	L945.02,399.206z M950.926,620.13c-0.44-5.819-0.48-11.637-0.3-17.456c4.119,0.58,8.218,1.34,12.317,2.12
	C959.984,610.633,957.385,617.331,950.926,620.13z M968.622,623.29c-2.799-0.1-5.599-0.18-8.378-0.26
	c2.459-5.479,5.539-10.657,9.658-15.056c0.94,2.979,2.16,5.899,2.739,8.998C971.441,619.151,969.982,621.19,968.622,623.29z
	 M974.012,380.16c15.137-5.461,30.992-8.265,46.683-11.717l0.128,4.361c-15.297,4.864-31.084,7.75-46.737,11.172L974.012,380.16z
	 M1021.027,379.776l6.033,205.701c-1.453,1.036-2.931,2.103-4.591,2.202c-14.576-0.52-29.333,0.3-43.63-3.159
	c-0.888-15.34-4.612-193.173-4.612-193.173C1006.654,384.212,987.59,387.23,1021.027,379.776z M979.499,625.089
	c-1.28-5.319-2.519-10.897,0.44-15.956c3.919,4.739,6.658,10.258,8.918,15.936C985.718,625.069,982.598,625.089,979.499,625.089z
	 M1026.648,626.269c-9.438-0.72-19.675,0.14-28.073-4.999c-6.199-3.299-8.578-10.297-11.557-16.176
	c7.218-0.04,14.417-0.34,21.635-0.76c5.959,1.1,11.897,2.279,17.976,2.639C1029.027,613.212,1029.307,620.051,1026.648,626.269z
	 M1028.642,366.617c11.092-2.68,19.278-5.625,27.722-5.168l0.047,2.25c-8.729,3.809-18.387,4.684-27.653,6.845L1028.642,366.617z
	 M1028.973,377.892c4.739-1.191,9.438-2.537,14.031-4.303c4.552-0.989,9.057-2.147,13.543-3.378
	c3.451,165.171,4.409,204.808,4.133,219.066c-8.616-0.601-17.866-0.04-25.633-4.27L1028.973,377.892z M1040.685,625.749
	c-5.419-5.019-4.059-12.557-4.139-19.175c6.158-0.18,12.317-0.02,18.456,0.42C1052.102,614.492,1048.423,622.21,1040.685,625.749z
	 M1062.539,627.189c-2.919-0.06-5.819-0.14-8.718-0.22c0.62-6.258,4.279-11.337,8.018-16.136
	C1063.799,616.151,1065.059,621.79,1062.539,627.189z M1064.317,359.2c3.389-2.1,43.256-11.221,44.469-11.478l0.31,0.535
	l0.012,0.487c-7.857,4.91-17.437,5.875-26.133,8.689c-6.101,1.374-12.303,4.548-18.621,3.549L1064.317,359.2z M1072.017,629.088
	c-2.339-5.399-3.459-11.117-1.04-16.756c4.959,4.399,7.598,10.497,9.298,16.756C1077.496,629.068,1074.756,629.088,1072.017,629.088
	z M1114.407,626.489c-4.819,5.119-13.197,2.539-19.495,2.299c-8.178-3.499-12.757-12.137-16.536-19.795
	c11.397-2.399,22.755-0.74,34.152,0.44C1113.927,614.972,1115.367,620.73,1114.407,626.489z M1070.637,588.678
	c-0.962-26.828-6.138-220.71-6.138-220.71c41.779-12.104,32.008-7.918,44.811-11.066l5.79,231.789
	C1101.046,594.002,1085.185,590.576,1070.637,588.678z M1117.04,346.015l-0.141-0.244c9.191-3.128,18.731-5.316,28.38-6.334
	c-8.992,3.59-18.465,6.987-28.214,7.602L1117.04,346.015z M1117.256,354.656c9.704-3.033,19.217-6.815,29.23-8.755
	c0,0,5.415,209.264,5.331,209.265c0.54,12.637,1.02,25.294,0.74,37.951c-9.773-0.185-20.35,0.971-29.42-2.986L1117.256,354.656z
	 M1133.263,628.069c-3.279,3.039-7.118-0.44-10.538-1.36c-0.16-5.939-0.1-11.877,0.12-17.816c7.258,0.82,14.497,1.9,21.815,2.359
	C1142.44,617.671,1140.061,625.089,1133.263,628.069z M1151.058,632.028c-0.28-1.7-0.86-5.119-1.14-6.818
	c-1.959,0.58-3.899,1.18-5.839,1.76c2.579-3.919,5.419-7.638,8.618-11.057C1155.217,621.35,1153.558,626.949,1151.058,632.028z
	 M1162.176,631.428c-1.52-4.939-1.799-10.098-1.6-15.216c4.699,3.639,7.718,8.758,8.838,14.576
	C1167.594,630.948,1163.975,631.268,1162.176,631.428z M1197.467,630.068c-3.519,1.48-7.218,2.439-10.857,3.599
	c-8.038-4.679-13.957-12.017-16.816-20.895c9.458,2.22,19.515,5.079,28.873,0.74
	C1198.287,618.971,1199.627,624.909,1197.467,630.068z M1192.628,595.057c-10.417,0.24-21.295,1.12-31.133-2.999
	c-1.537-8.468-1.27-36.968-1.425-36.967l-5.638-211.292c12.748-4.462,25.843-7.855,39.017-10.751l5.66,260.065
	C1197.087,594.197,1194.99,595.094,1192.628,595.057z M1201.397,330.655c11.033-3.747,22.156-7.25,33.335-10.563l6.07,239.225
	c-0.082,0.003-0.164,0.005-0.246,0.009c0,0,0.866,24.455,1.189,37.172c-7.522,0.75-28.61,2.711-34.605-1.969L1201.397,330.655z
	 M1226.76,628.869c-6.099,4.899-14.996,6.358-20.575-0.18c0.48-5.339,1.26-10.617,2.02-15.916c8.998,0.76,17.916,2.479,26.974,2.599
	C1232.219,619.771,1227.62,623.35,1226.76,628.869z M1235.438,631.488c0.9-4.419,3.379-8.098,6.478-11.257
	c1.2,3.779,2.319,7.578,3.339,11.417C1241.977,631.608,1238.697,631.568,1235.438,631.488z M1249.655,627.809
	c1.979-1.48,5.099,0.28,6.139,2.239C1255.193,633.707,1248.315,631.028,1249.655,627.809z M1253.254,697.672
	c10.657-4.859,23.374-4.239,33.832,0.86C1276.348,702.451,1263.711,702.371,1253.254,697.672z M1282.673,306.8
	c12.845-6.242,26.761-9.483,40.389-13.573c8.29,304.191,8.623,300.269,5.873,308.388c-33.297-1.694-34.601,1.353-38.407-2.538
	L1282.673,306.8z M1314.279,635.127c-7.938,0.26-15.936,0.1-23.594-2.179c-0.12-5.399-0.1-10.777,0.08-16.156
	c10.078,1.3,20.135,2.759,30.333,2.519C1321.477,625.529,1318.018,630.548,1314.279,635.127z M1321.977,635.167
	c2.499-3.739,5.099-7.398,7.958-10.877c1.12,3.619,2.219,7.258,3.199,10.937C1329.396,635.247,1325.677,635.227,1321.977,635.167z
	 M1337.934,635.067c1.56-1.82,3.119-3.639,4.719-5.439c1.68,2.419,3.299,4.879,4.799,7.458
	C1344.252,636.447,1341.093,635.747,1337.934,635.067z M1362.688,639.786c-8.618-2.879-12.557-11.217-16.396-18.695
	c6.139-0.02,12.277,0,18.436,0.02C1364.947,627.389,1364.987,633.827,1362.688,639.786z M1364.955,280.029
	c15.432-6.268,28.38-10.931,44.635-14.888c6.016,270.572,7.528,327.093,6.785,340.313c-11.297-2.579-22.915-2.659-34.312-0.74
	c-3.701,1.089-6.494-0.989-9.325-2.995L1364.955,280.029z M1418.494,640.506c-3.879-1-7.278-2.999-10.577-5.139
	c-10.378,5.859-22.455,3.319-33.792,3.739c-1.939-5.939-0.56-12.097,0.28-18.076c11.957,2.159,24.114,2.259,36.231,2.08
	c-0.7,3.599-1.44,7.178-2,10.817c3.359-1.64,6.638-3.519,9.898-5.399C1418.534,632.508,1418.534,636.507,1418.494,640.506z
	 M1419.254,706.47c2.079-3.739,6.638-3.659,10.318-4.599c7.498-1.56,16.856-1.88,21.995,4.879
	C1440.969,709.689,1429.972,706.87,1419.254,706.47z M1451.696,602.565l-6.497-349.477c15.67-4.946,31.511-9.414,47.143-14.486
	l10.519,334.551c-0.098,0.06-0.221,0.137-0.306,0.189c-0.06,11.997,0.06,24.014-0.12,36.011c-15.456-3.459-31.552-0.24-47.069-3.119
	C1453.611,605.511,1452.533,604.136,1451.696,602.565z M1494.076,638.146c-4.979,3.399-10.497,8.538-17.016,6.478
	c-7.458-1.919-15.136-2.059-22.735-2.859c0.14-5.339,0.32-10.697,0.62-16.036c13.237,2.019,26.634,0.96,39.951,1.42
	C1494.716,630.808,1494.836,634.527,1494.076,638.146z M1503.994,631.868c0.34,4.399,0.52,8.818,0.66,13.237
	c-2.999,0.24-5.999,0.46-8.978,0.66C1496.216,640.026,1499.715,635.467,1503.994,631.868z M1529.968,712.988
	c-10.098-2-20.735-0.96-30.393-4.979c10.357-1.7,20.675-3.619,31.033-5.319C1530.408,706.11,1530.208,709.549,1529.968,712.988z
	 M1568.059,650.963c-10.537-0.32-20.975-2.719-31.432-3.999c-0.72-5.439-1.54-10.857-2.479-16.236
	c13.317-2.619,26.913,0.54,40.37,0.42c2.12,0.04,7.478,0.42,5.938,3.839C1577.936,641.106,1574.337,648.204,1568.059,650.963z
	 M1579.916,712.169c10.338-1.56,20.695-4.199,31.233-3.059C1603.35,716.927,1589.593,716.468,1579.916,712.169z M1604.239,200.413
	c15.189-5.944,30.239-12.301,46.06-16.298c-0.206,81.542,0.982,163.328,2.854,244.812c0.002,0.07,0.003,0.139,0.005,0.209
	c0,0,1.82,132.046,1.82,132.048c0.48,19.375,2.5,38.791,0.7,58.166c-9.818-0.08-19.415-2.799-29.253-2.22
	c-4.153,0.359-8.172-0.344-12.074-1.523L1604.239,200.413z M1656.417,652.283c-1.96,0.88-3.879,1.78-5.779,2.699
	c-9.638-6.678-21.015,0.34-31.593-2.14c-5.159-4.959-1.68-13.477-2.619-19.915c12.837-0.04,25.474,3.119,38.351,2.199
	C1656.358,640.706,1656.777,646.504,1656.417,652.283z M1672.538,84.843h-11.378l-0.766-12.729l13.106,0.215L1672.538,84.843z
	 M1804.922,731.124c-1.06,2.879-2.14,5.739-3.199,8.598c-1.92-2.839-3.759-5.739-5.579-8.638
	C1799.063,731.084,1801.983,731.104,1804.922,731.124z M1800.683,379.168c0.08,26.595,2.884,33.83,1.74,115.932
	c-1,0.02-2.999,0.06-3.979,0.06c-0.26-17.456,0.82-34.992-1.54-52.348c-1.38-24.534,0.36-49.168-0.86-73.702
	c-2.919-17.856-1.18-35.991-1.58-53.967c0.36-11.397-2.28-22.595-2.08-33.992c0.18-15.636-0.28-31.273,0.34-46.909
	C1805.09,244.616,1798.754,217.187,1800.683,379.168z M1791.845,131.647c1.18-1.959,6.139-1.74,5.619,1.14
	C1796.204,134.727,1791.325,134.507,1791.845,131.647z M1798.104,202.15c1.14,9.818,2.099,19.675,2.359,29.573
	c-2.619-0.86-5.219-1.72-7.798-2.619c-0.08-7.838-1.839-15.536-2.219-23.355C1792.625,203.89,1795.424,203.13,1798.104,202.15z
	 M1791.065,527.853c2.979,2.219,1.839,9.038,0.72,12.537C1788.786,538.13,1789.906,531.332,1791.065,527.853z M1784.487,499.099
	c-4.639,0.88-9.278,1.72-13.937,2.379c0.72-20.835-2.859-41.51-2.12-62.345c-0.24-21.335,0.74-42.73-1.12-64.025
	c-0.32-4.359-0.3-8.738-0.2-13.077c4.999-1.4,10.038-2.659,15.196-3.439c0.48,26.154-0.84,52.388,1.92,78.441
	C1784.347,457.729,1784.907,478.424,1784.487,499.099z M1780.168,355.114c-3.559-0.04-7.098-0.1-10.617-0.2
	c0.84-6.838,7.918-5.859,13.057-6.039C1781.788,350.955,1780.968,353.034,1780.168,355.114z M1780.748,343.117
	c-4.719,1.02-9.438,1.9-14.197,2.499c0-14.157-0.06-28.333-1.72-42.41c-0.26-27.633-0.48-55.287-1.14-82.9
	c5.099,1.94,9.958,4.419,14.736,7.078c-0.12,13.897-0.34,27.833,1.7,41.63C1780.868,293.689,1780.068,318.423,1780.748,343.117z
	 M1773.29,137.826c2.959,2.999-6.259,5.519-8.718,4.299C1764.612,138.426,1770.43,138.286,1773.29,137.826z M1778.368,208.269
	c0.02,4.339,0.04,8.698,0.06,13.057c-5.299-2.599-10.637-5.199-15.196-8.978C1768.211,210.768,1773.25,209.389,1778.368,208.269z
	 M1762.432,533.111h3.999c-0.02,3.319-0.02,6.658,0,9.998h-3.999C1762.412,539.77,1762.412,536.431,1762.432,533.111z
	 M1756.154,486.702c-0.6,5.739,1.48,11.997-0.78,17.376c-3.659,1.58-7.518,2.519-11.297,3.599c-2.359-22.135-1.36-44.429-1.9-66.624
	c-1.66-12.177,1.16-24.474-1.06-36.611c-1.08-10.877-1.1-21.915-0.3-32.812c1.32-4.919,7.458-4.339,11.457-4.899
	c2.16,21.395,0.9,42.95,2.12,64.405C1753.914,449.711,1757.653,468.107,1756.154,486.702z M1743.217,357.733
	c1.88-2.859,7.318-0.04,4.899,3.019C1746.176,363.512,1740.737,360.773,1743.217,357.733z M1736.438,221.206
	c4.259-1.48,8.598-2.799,12.917-4.219c2.719,23.154-0.18,46.609,1.56,69.843c2.699,20.715,1.06,41.65,1.56,62.445
	c-3.879,1.08-7.798,2.02-11.717,2.839c-4.859-27.913-0.5-56.347-3.259-84.44C1735.599,252.258,1736.718,236.702,1736.438,221.206z
	 M1736.978,540.39c3.039,0.04,3.039,7.538-0.02,7.578C1735.259,545.948,1735.259,542.389,1736.978,540.39z M1728.12,433.055
	c0.96,20.695-0.3,41.45,0.6,62.165c-0.1,4.819,2.319,9.838,0.36,14.497c-3.839,2.18-8.278,2.859-12.477,3.979
	c-3.97-82.569-1.147-67.828-2.539-97.937c-1.08-13.437-1.939-26.894-1.6-40.37c4.579-1.02,9.178-2.02,13.857-2.719
	C1726.961,392.805,1725.261,413.04,1728.12,433.055z M1716.223,369.13c0.2-1.42,0.6-4.259,0.8-5.679
	c1.18,0.02,3.579,0.06,4.759,0.08c0.22,1.4,0.66,4.179,0.88,5.579C1721.042,369.11,1717.843,369.13,1716.223,369.13z
	 M1708.465,229.324c4.659-1.42,9.338-2.799,13.997-4.239c0.34,16.136-0.38,32.332,1.68,48.368c0.98,27.713-0.72,55.507,1.68,83.18
	c-4.379,1.46-8.858,2.599-13.337,3.619c-0.06-11.637,0.24-23.274-1.1-34.852c-2.739-25.974,1.26-52.288-2.679-78.181
	C1708.205,241.281,1708.425,235.302,1708.465,229.324z M1708.865,546.268c2.859-0.54,3.079,4.379,1.16,5.619
	C1707.125,552.407,1706.905,547.488,1708.865,546.268z M1704.466,605.614c11.157-10.258,23.634-19.515,38.131-24.434
	c8.978-2.819,17.996-7.258,27.673-5.999c11.757,1.68,23.234,5.279,33.812,10.737c0.38,12.837,0.82,25.734,0.02,38.571
	c-3.464,6.192-29.149,0.466-41.65,0.14c-1.08-12.777,0.94-25.794-1.859-38.371c-2.779,0.84-5.879,1.16-7.958,3.359
	c-1.02,10.338,1.42,20.595,1.58,30.913c-16.036,2.699-33.572,4.479-49.788,0.46C1704.406,615.852,1704.426,610.733,1704.466,605.614
	z M1754.014,654.062c-2.919,0.4-2.939-4.579-1.14-5.899C1755.734,647.744,1755.754,652.723,1754.014,654.062z M1701.627,517.875
	c-4.319-8.238-2.759-17.836-3.179-26.754c0.42-25.354-2.619-50.628-2.04-75.982c0.58-15.396-2.279-30.633-2.14-46.029
	c-0.18-9.558,0.18-19.175-1.04-28.673c-1.94-16.376,0.28-32.912-1.4-49.308c-2.899-18.596-0.36-37.471-1.88-56.167
	c1.979-0.66,3.999-1.32,6.039-1.94c0.93,13.143,4.397,223.766,4.759,232.065C1703.366,482.523,1702.946,500.339,1701.627,517.875z
	 M1710.585,750.759c-2.38-5.639-2.38-11.777-2.359-17.756c3.619,0.06,7.278,0.12,10.937,0.26
	C1717.563,739.622,1714.744,745.641,1710.585,750.759z M1739.058,655.762c-8.838,6.059-19.935,2.619-29.513,0.6
	c-5.039-2.599-5.499-7.878-5.399-12.937c6.259-2.519,12.917-4.199,19.096-0.46c0.04-1.02,0.12-3.059,0.16-4.079
	c7.218,0.08,14.337,1.34,21.415,2.619C1743.997,646.404,1744.676,653.622,1739.058,655.762z M1763.252,729.305
	c-1.84,5.739-4.859,10.977-7.838,16.176c-2.739-5.359-5.499-10.697-7.698-16.296
	C1752.874,729.065,1758.073,729.104,1763.252,729.305z M1760.913,841.358c-1.86-2.879-3.639-5.799-5.239-8.798
	c3.099,0.62,6.318,1.22,9.138,2.879C1764.212,837.839,1762.452,839.558,1760.913,841.358z M1761.932,811.085
	c-4.019-0.3-7.998-0.66-11.957-1c2.14-6.478,4.899-12.717,8.058-18.755c3.319,4.719,6.239,9.758,8.158,15.256
	C1764.752,808.066,1763.312,809.565,1761.932,811.085z M1788.126,661.001c-9.518-1.18-13.217-10.937-17.836-17.916
	c7.398-0.02,14.797,0,22.215-0.04c1.38,3.759,3.259,7.458,3.699,11.517C1793.925,657.162,1791.305,659.581,1788.126,661.001z
	 M1806.162,805.026c-3.499-0.04-6.978-0.08-10.418-0.12c1.76-6.419,4.439-12.517,7.258-18.536c1.8,2.299,4.679,4.059,5.459,7.018
	C1808.321,797.368,1806.982,801.167,1806.162,805.026z M1807.834,32.651l-2.201-10.516l11.339-0.945
	c0.533,2.404,1.076,4.806,1.607,7.201C1814.947,29.745,1811.371,31.172,1807.834,32.651z M2122.889,279.297l3.007,110.515
	c-23.315-9.704-46.616-19.628-69.661-29.715l-2.302-114.982C2077.023,256.766,2100.004,268.155,2122.889,279.297z M2053.761,636.086
	c-1.005-0.066-2-0.052-2.988,0.02l-6.291-276.809c1.255,0.554,2.512,1.107,3.769,1.66L2053.761,636.086z M2047.264,241.733
	l-1.399,0.028l2.299,114.792c-1.261-0.556-2.522-1.111-3.781-1.667l-0.019-0.823l-1.749,0.04
	c-22.261-9.851-44.233-19.845-65.695-29.932l-3.422-120.459C1998.216,216.676,2022.802,229.35,2047.264,241.733z M2042.805,637.457
	c-2.612,0.559-5.227,1.065-7.898,1.049c-16.382-1.603-32.877-1.56-49.17-3.967l-8.69-305.894
	c19.429,9.114,39.268,18.151,59.356,27.074L2042.805,637.457z M1971.395,411.314c1.365,48.036,2.729,96.072,4.094,144.109
	c0.405,14.24,0.469,28.483,0.414,42.727c-0.033,8.54-0.109,17.08-0.181,25.619c-0.129,15.312-25.166,11.333-35.471,9.858
	c-11.877-0.58-23.834-0.58-35.492-3.259c-1.354-0.311-2.926-48.085-3.183-53.148c-0.988-19.497-0.099-39.05-0.628-58.559
	c-0.625-25.093-1.251-50.185-1.876-75.278c-1.108-44.464-2.216-88.928-3.324-133.392c-0.179-7.192-0.354-14.385-0.538-21.577
	c23.569,12.204,48.272,24.369,73.728,36.411C1969.756,353.655,1970.575,382.485,1971.395,411.314z M1911.697,648.924
	c5.599-0.74,10.877,1.54,16.336,2.419c13.157,3.119,26.774,2.079,40.151,1.56c-2.58,4.459-4.199,9.358-5.879,14.217
	C1918.008,666.076,1924.189,672.312,1911.697,648.924z M1912.996,665.1c-2.799-0.12-5.579-0.26-8.338-0.4
	c0.02-2.879,0.08-5.739,0.2-8.618C1908.557,658.082,1910.957,661.501,1912.996,665.1z M1894.421,663.22
	c-3.439-0.14-2.539-5.499,0.44-5.639C1898.08,657.682,1897.38,663.2,1894.421,663.22z M1966.018,199.786l-0.633,0.018l3.424,120.539
	c-25.468-12.071-50.166-24.264-73.715-36.492l-3.082-123.665C1916.824,173.68,1941.487,186.876,1966.018,199.786z M1840.389,234.507
	c0.177-8.636-0.546-17.389-0.818-26.024c-0.029-0.91-0.059-1.821-0.09-2.731c-0.869-25.013-2.81-50.037-3.206-75.024
	c0.874,0.399,1.744,0.81,2.616,1.213c0.006-0.307,0.056-0.611,0.084-0.917c15.052,8.37,30.042,16.621,44.986,24.776l-0.055,0.001
	c0,0,3.086,123.818,3.086,123.818c-11.979-6.297-23.888-12.727-35.705-19.325c-3.708-2.07-8.494-3.624-10.219-7.699
	C1838.69,246.974,1840.27,240.362,1840.389,234.507z M1853.912,588.624c-0.631-13.308-1.262-26.617-1.892-39.926
	c-1.212-25.577-1.591-50.95-2.272-76.541c-0.984-36.609-3.302-73.362-4.976-110.094c-1.262-27.691-2.159-55.37-1.841-82.967
	c0.055-3.422,3.234-16.622-0.337-18.619c0.14,0.078,0.283,0.15,0.424,0.227c-0.058-0.179-0.089-0.366-0.14-0.547
	c14.165,8.008,28.945,16.028,44.228,24.037c0.009,0.344,8.658,346.869,8.635,347.494c-0.034,0.943-20.135-5.948-22.562-7.974
	c-4.357-3.639-5.248-9.891-11.345-10.128c-1.943,3.941-3.885,7.882-5.828,11.823c1.079-3.303-1.014-14.015-1.147-16.821
	C1854.543,601.932,1854.228,595.278,1853.912,588.624z M1890.542,649.064c-2.259,4.799-3.959,10.418-8.678,13.437
	c-4.659,2.879-10.297,0.58-15.276,0.18c-0.32-3.639-0.28-7.258-0.28-10.897C1874.245,649.584,1882.224,646.804,1890.542,649.064z
	 M1984.119,752.639c-2.119,3.819-5.399,6.998-6.758,11.237c-1.08,5.479,0.18,11.137-0.8,16.636c-1.1,2.579-4.199,3.319-6.158,5.059
	c0.56,8.838,1.12,17.736,0.3,26.614c-3.899,0.02-7.758,0.06-11.617,0.1c-1.36-9.178-3.279-18.316-2.799-27.653
	c-8.938-2.679-18.296-1.02-27.394-1.78c-4.319-5.139-1.6-13.137-5.879-18.555c-5.859-2.219-12.077,0.08-18.096-0.42
	c-3.839-0.06-8.638-1.4-11.017,2.619c-2.779,5.039-3.219,11.337-2.359,17.016c-2.939,1.56-5.938,3.019-8.938,4.399
	c0.26,7.658-0.26,15.436-4.279,22.195c-0.98-2.999-1.82-6.019-2.599-9.038c-4.019-1.06-8.158-1.78-12.057-3.179
	c-2.199-5.079-0.92-11.017-2-16.416c-1.6-8.738-1.26-17.656-1.28-26.494c0.12-7.298-1.76-14.556-0.54-21.815
	c6.498-0.08,12.997-0.14,19.515-0.56c-1.66-2.559-3.419-5.039-5.199-7.458c8.518,0.2,16.836-1.939,25.334-2.099
	c-1.68,3.759-5.479,5.279-8.958,6.818c0.02,1.12,0.02,3.359,0.04,4.479c12.917,1.32,25.934,0,38.851,1.44
	c9.998,0.84,19.995-0.28,29.953-1.3c-1.7-1.899-3.459-3.699-5.199-5.459c6.058-0.02,12.137,0.04,18.236,0.06l0.02,2.119
	c-4.059-0.04-8.078-0.06-12.077-0.04c0.04,1.52,0.08,4.539,0.12,6.058c7.938,0.68,15.916,1.32,23.874,2.02
	C1984.359,743.701,1984.639,748.18,1984.119,752.639z M1984.139,669.219c0.18-3.159,0.44-6.299,0.78-9.438
	c2.899,2.399,4.759,5.679,6.478,8.998C1989.578,668.879,1985.959,669.099,1984.139,669.219z M2001.195,668.379
	c-3.699-4.579-6.678-9.678-9.398-14.856c17.436,0.34,34.852,1.12,52.307,1.94c0.24,5.279-0.44,10.518-1.8,15.596
	C2028.589,670.539,2014.432,672.938,2001.195,668.379z M2044.705,793.849c-0.36-6.558-0.34-13.177-1.7-19.635
	c-2.539-10.997,0-22.235-0.5-33.352c2.579,0.74,5.179,1.5,7.818,2.259c0.22,15.836-0.84,31.772,1.979,47.449
	C2050.124,792.409,2047.304,793.009,2044.705,793.849z M2055.822,669.919c-2.839-0.32-3.339-1.66-1.5-3.979
	C2057.122,666.26,2057.622,667.579,2055.822,669.919z M2061.221,602.835c-0.037,0.002-0.085,0.004-0.124,0.006l-4.773-238.343
	c18.338,8.016,36.832,15.927,55.364,23.706l-2.336,0.08l8.693,252.111c-15.441,0.755-42.854,0.162-55.164-2.148
	C2062.68,626.429,2062.781,614.572,2061.221,602.835z M2068.239,672.018c-2.499,1.48-4.619-2.899-2.679-4.499
	C2068.059,666.1,2070.299,670.339,2068.239,672.018z M2099.852,657.862c5.419,0.94,10.917,1.24,16.436,1.48
	c0.8,4.339,1.82,8.698,1.9,13.157c-3.459,4.159-9.238,1.4-13.817,1.8c-8.258-0.78-17.576,3.019-24.714-2.639
	c-5.439-2.959-6.719-9.378-8.938-14.616C2080.416,658.381,2090.174,656.182,2099.852,657.862z M2120.766,765.016
	c-14.017-6.498-29.653-3.199-44.509-3.979c-0.04-6.139-0.04-12.277,0-18.416c13.277,0.52,26.594,0.44,39.891,0.48
	c-0.1-2.499-0.14-4.979-0.14-7.458C2120.846,744.581,2125.065,754.918,2120.766,765.016z M2131.084,607.574
	c-1.04,11.057-0.52,22.175-0.5,33.252c-1.512-0.247-3.024-0.375-4.537-0.46l-8.612-249.754c2.86,1.196,5.72,2.388,8.58,3.578
	l5.806,213.384C2131.578,607.576,2131.328,607.57,2131.084,607.574z M2130.996,283.229c23.054,11.176,46.011,22.099,68.88,32.769
	l2.839,105.031c-22.738-9.031-45.724-18.334-68.727-27.858L2130.996,283.229z M2183.676,417.734l-0.343,0.009l5.774,223.261
	c-0.51,0.683-1.04,1.35-1.537,2.042c-15.596,0.04-31.192,0.46-46.769-0.44c-0.073-1.103-6.667-244.061-6.695-245.061
	C2150.67,404.395,2167.223,411.133,2183.676,417.734z M2143.581,675.697c-3.079,0.5-4.899-3.759-2.999-5.919
	C2143.981,666.799,2147.86,674.598,2143.581,675.697z M2157.218,676.357c-3.159-4.919-5.559-10.318-9.018-15.036
	c7.778,0.38,15.636-0.92,23.394,0.52c5.878,1.16,11.877,1.34,17.896,1.42c0.72,5.379,0.92,10.897-1.04,16.076
	C2178.193,676.837,2167.535,678.097,2157.218,676.357z M2190.03,741.242c-4.439-0.14-8.858-0.24-13.237-0.62
	c4.859-2.14,10.038-3.399,15.296-4.079C2191.57,737.703,2190.53,740.062,2190.03,741.242z M2191.413,420.83
	c3.814,1.523,7.619,3.036,11.419,4.544l5.032,186.17c-0.165,0.011-0.333,0.017-0.498,0.028c1,11.137,0.98,22.315,0.3,33.472
	c-3.259-0.24-6.478-0.48-9.698-0.68C2196.744,640.141,2197.549,658.094,2191.413,420.83z M2206.246,679.216
	c-3.379-0.64-1.859-5.279,0.7-5.939C2212.185,671.538,2210.685,680.296,2206.246,679.216z M2207.978,319.763
	c23.126,10.74,46.165,21.225,69.126,31.459l-1.293,0.032l2.475,99.182c-22.053-8.413-44.627-17.165-67.485-26.203L2207.978,319.763z
	 M2260.073,680.736c-8.238,2.719-16.996,0.52-24.934-2.139c-6.198-1.94-8.118-8.438-10.997-13.517
	c12.357-0.64,24.614,0.5,36.831,2.379C2260.673,671.878,2260.373,676.297,2260.073,680.736z M2247.416,647.384
	c-1.08-3.739-2.139-7.458-3.659-10.997c-5.279,3.559-7.978,12.097-15.456,10.917c-2.739-0.08-6.019,0.22-7.398-2.659
	c-3.599-10.817-4.19-33.592-5.051-33.548l-4.933-182.52c15.641,6.178,31.146,12.223,46.44,18.116l-2.541,0.106l8.215,196.192
	C2255.731,648.895,2255.651,646.434,2247.416,647.384z M2270.591,680.016c-0.26-4.319-0.36-8.638-0.46-12.937
	c2.74-0.02,5.499-0.02,8.298,0C2275.989,671.498,2273.41,675.837,2270.591,680.016z M2272.39,648.624
	c-0.28-3.579-0.62-7.178-0.96-10.737c-0.203,0.086-0.394,0.194-0.595,0.283l-7.928-189.342c5.189,1.994,10.352,3.97,15.487,5.927
	c4.968,199.039,4.794,181.321,4.013,191.79C2279.029,647.184,2275.689,647.864,2272.39,648.624z M2284.947,680.036
	c-2.479,2-4.799-2.439-2.559-4.039C2284.787,674.098,2287.107,678.437,2284.947,680.036z M2296.085,682.336
	c-2.659,1.859-5.659-2.679-3.399-4.679C2295.285,675.777,2298.224,680.296,2296.085,682.336z M2330.316,683.016
	c-7.278,0.54-14.556,0.48-21.795,0.06c-1.82-4.239-3.759-8.438-6.198-12.337c9.818-2.539,20.215-2.339,29.993,0.32
	C2331.556,675.017,2330.856,678.996,2330.316,683.016z M2292.266,649.464c0.02-11.657-1.653-34.872-1.882-34.833l-3.914-156.804
	c13.864,5.264,27.501,10.387,40.857,15.358l5.353,177.144C2319.203,651.092,2305.565,652.333,2292.266,649.464z M2286.363,453.512
	l-2.477-99.265c22.88,10.155,45.685,20.061,68.425,29.724l2.259,95.032C2332.663,470.947,2309.831,462.428,2286.363,453.512z
	 M2335.42,476.192c6.491,2.407,12.91,4.776,19.251,7.106c3.841,161.602,3.958,155.288,3.239,169.905
	c-5.813-0.333-11.501-1.44-17.213-2.374L2335.42,476.192z M2340.394,684.195c0.4-4.399,0.96-8.778,1.5-13.157
	c3.339,0.06,6.718,0.12,10.097,0.22C2350.312,677.057,2347.892,684.775,2340.394,684.195z M2357.03,685.515
	c-3.619-0.88-1.12-6.238,1.899-5.739C2362.469,680.636,2360.309,686.435,2357.03,685.515z M2360.39,387.394
	c22.91,9.683,45.756,19.119,68.55,28.314l-0.667,0.014l1.86,90.59c-21.075-7.486-43.705-15.632-67.495-24.347L2360.39,387.394z
	 M2369.107,654.542c-1.711-11.639-3.16-23.489-3.179-35.272c-0.009,0-0.018-0.001-0.027-0.001l-3.161-133.012
	c12.209,4.47,24.113,8.79,35.65,12.945l-1.607,0.056l5.383,154.132C2391.348,656.051,2380.1,655.279,2369.107,654.542z
	 M2400.24,687.135c-4.499-0.04-8.998,0.24-13.417-0.42c-4.359-3.559-9.818-7.258-10.857-13.177c3.439-2.939,8.158-0.46,12.237-0.78
	c4.659,0.84,10.537-1.08,14.137,2.859C2402.119,679.516,2401.02,683.315,2400.24,687.135z M2418.695,688.334
	c-1.879-0.22-5.619-0.64-7.498-0.86c0.2-4.339,0.52-8.678,0.92-12.997c4.639-0.04,9.318,0.1,14.017,0.32
	C2423.654,679.316,2421.135,683.795,2418.695,688.334z M2410.185,653.848l-5.319-152.316c8.677,3.116,17.134,6.134,25.355,9.053
	l2.282,111.124c-0.003,0-0.008,0.001-0.011,0.001c-0.32,11.277-0.26,22.555-0.12,33.832
	C2422.233,655.729,2419.33,656.35,2410.185,653.848z M2432.592,687.774c-2.599-1.36-2.579-2.719,0.08-4.059
	C2435.231,685.075,2435.211,686.415,2432.592,687.774z M2436.335,418.676c21.75,8.728,43.454,17.238,65.12,25.531l-0.698,0.016
	l1.961,87.444c-18.975-6.515-40.685-14.06-64.525-22.497L2436.335,418.676z M2466.289,523.283l5.531,133.208
	c-10.057,0.445-20.179,2.734-29.87-1.369c-1.376-19.171-1.001-11.788-3.669-141.682
	C2447.989,516.874,2457.338,520.158,2466.289,523.283z M2445.209,688.874c-2.859,0.8-3.859-0.2-2.959-2.959
	C2445.009,685.115,2446.009,686.115,2445.209,688.874z M2449.888,677.577c6.719,1.5,13.637,1.58,20.535,1.68
	c-0.16,3.739-0.3,7.478-0.46,11.217c-4.239-0.72-8.538-1.14-12.677-2.18C2454.467,684.955,2452.487,681.056,2449.888,677.577z
	 M2459.046,752.719c5.099-2.059,10.478-3.379,15.956-4.039C2473.662,756.058,2464.224,752.259,2459.046,752.719z M2497.396,684.515
	c-1.52,2.419-3.559,4.519-5.739,6.339c-3.819,0.96-7.818,0.08-11.637,0c0.14-4.959-0.08-10.797,4.919-13.577
	C2489.978,676.117,2498.176,677.897,2497.396,684.515z M2479.874,657.695l-5.464-131.582c10.032,3.49,19.527,6.768,28.403,9.813
	c2.776,123.806,2.836,114.568,1.961,123.215C2496.401,659.611,2488.057,659.246,2479.874,657.695z M2504.495,691.714
	c-2.56-1.34-2.479-2.719,0.22-4.159C2507.174,688.894,2507.114,690.294,2504.495,691.714z M2508.819,447.02
	c21.342,8.124,42.649,16.037,63.931,23.748l1.677,85.034c-12.078-3.966-34.145-11.286-63.648-21.374L2508.819,447.02z
	 M2512.848,626.731l-1.974-88.045c9.667,3.303,18.515,6.303,26.462,8.98l-0.589,0.01l1.896,112.802
	c-8.121,0.367-16.242,0.09-24.311-1.116C2513.919,641.696,2515.343,630.731,2512.848,626.731z M2532.348,693.093
	c-3.739-4.219-7.039-8.858-8.958-14.197c4.979,0.12,9.978,0.62,14.857,1.7c0.18,4.159,0.44,8.338,0.68,12.497H2532.348z
	 M2563.521,694.893c-4.539,0.94-9.018-0.8-13.157-2.379c-1.66-3.559-0.34-7.678-0.4-11.417c6.998-0.14,14.017-0.12,21.035,0.16
	C2569.719,686.335,2568.06,691.753,2563.521,694.893z M2577.817,662.64c-10.463,1.035-21.022,0.858-31.168-1.824l-1.86-110.646
	c13.012,4.364,23.094,7.694,29.72,9.867l1.728,87.624C2576.238,647.662,2578.094,657.641,2577.817,662.64z"/>
</svg>
