<?xml version="1.0" encoding="UTF-8" standalone="no"?>
<!-- Created with Inkscape (http://www.inkscape.org/) -->
<svg xmlns:rdf="http://www.w3.org/1999/02/22-rdf-syntax-ns#" xmlns="http://www.w3.org/2000/svg" xmlns:cc="http://creativecommons.org/ns#" xmlns:dc="http://purl.org/dc/elements/1.1/" xmlns:svg="http://www.w3.org/2000/svg" xmlns:inkscape="http://www.inkscape.org/namespaces/inkscape" xmlns:sodipodi="http://sodipodi.sourceforge.net/DTD/sodipodi-0.dtd" xmlns:ns1="http://sozi.baierouge.fr" xmlns:xlink="http://www.w3.org/1999/xlink" id="svg2" viewBox="0 0 1722 774.38" version="1.1" inkscape:version="0.91 r13725">
  <g id="layer2" transform="translate(754.98 98.838)">
    <path id="path3906" style="color:#000000;stroke:#000000;stroke-width:1px;fill:#053f65" d="m464.81 55.938c-89.214 0.1581-171.45 5.538-226.69 10.719-61.753 9.0184-136.16 23.702-212.16 60.375-81.739 34.41-215.54 118.38-303.84 180-44.05 38.609-155.09 111.8-171.06 98.625-57.982-47.811-229.76-109.73-291.81-129.81 3.4144 27.742 15.929 43.191 18.562 60.562 11.95-5.2367 21.812-9.5 21.812-9.5 12.716 27.24 137.38 114.74 149.44 175.78 6.6332 43.648-53.046 129.04-45.594 158.62 25.045-1.7551 133.46-113.5 158.97-169.69 7.0665-8.2007 21.167-14.216 41.438-18.438 16.349-0.0161 40.734 8.0953 30.969 29.062-2.0831 4.4727-25.277 30.208-23.219 32.531 10.868 12.271 93.205-58.815 92.719-69.75 23.94-0.30448 50.392 0.0284 79.125 0.875 126 16.462 278.06 30.965 490.44 3.7188 62.94-0.33 160.6-28.47 206.03-41.37 97.56-16.79 242.93-58.88 251.15-92.81 128.72-55.18 213.48-101.71 210.72-147.19-50.6-107.77-280.67-132.66-476.94-132.31zm-815.22 411.28c-11.592 1.0833-23.205 2.4079-34.5 3.9375 10.265-1.652 21.782-2.9703 34.5-3.9375z"/>
    <path id="path3929" style="color:#000000;stroke:#000000;stroke-width:1px;fill:#053f65" d="m9.5031 139.26c60.197-44.831 19.254-164.23 57.764-233.3 29.429-22.07 115.85 159.57 112.3 168.45-6.94 17.349-35.64 29.74-51.06 36.52-34.16 15.03-83.22 37.33-119.01 28.33z"/>
    <path id="path3927" style="color:#000000;stroke:#000000;stroke-width:1px;fill:#053f65" d="m272.48 465.96c96.569 27.945 128.63 116.77 201.49 165.34 58.036 38.691 34.396-126.81-3.2298-210.93-61.45-12.29-166.55 27.039-198.26 45.59z"/>
    <path id="path3936" style="stroke-opacity:.59836;color:#000000;stroke:#000000;stroke-width:1px;fill:#032d48" d="m188.99 305c-10.891-31.819-290.47-3.9867-441-16.223-53.874-4.3792-86.224-8.0608-162.15-1.0541 64.453 6.4454 127.59 28.084 162.9 36.818 76.463 5.9692 188.77 27.395 239.43 35.639 22.155 2.6538 18.443 42.187 55.788 46.855 53.321 6.6652 63.44-29.889 85.009-24.53"/>
    <path id="path3934" style="color:#000000;fill:#075b92" d="m943.04 191.8c-225.62-227.99-720.32 141.07-985.55 184.99-100.47 16.639-200.47 15.174-300.94 23.717-87.73 7.459-107.83 72.154-182.84 37.145 76.915 50.581 20.904 96.117-2.5029 147.49-7.3289 16.086-28.716 46.034-18.446 36.893 114.72-102.11 89.609-122.36 126.84-143.53 9.2345-2.3005 99.267-19.627 29.256 58.199 27.937-6.3902 52.879-20.991 99.455-72.729 200.45 9.8848 331.56 25.633 475.24 16.576 151.73-9.5652 527.85-91.826 550.65-147.05 105.53-42.64 204.16-93.192 208.83-141.7z"/>
    <path id="path3957" style="color:#000000;fill:#085d94" d="m618.96 129.06c0 11.279-8.3078 20.423-18.556 20.423s-18.556-9.1435-18.556-20.423c0-11.279 8.3078-20.423 18.556-20.423s18.556 9.1435 18.556 20.423z" transform="matrix(1.3111 .19022 -.29694 1.2518 -150.97 -146.55)"/>
    <path id="path3938" style="color:#000000;fill:#719dba" d="m618.96 129.06c0 11.279-8.3078 20.423-18.556 20.423s-18.556-9.1435-18.556-20.423c0-11.279 8.3078-20.423 18.556-20.423s18.556 9.1435 18.556 20.423z"/>
    <path id="path3959" style="color:#000000;fill:#053e64" d="m618.96 129.06c0 11.279-8.3078 20.423-18.556 20.423s-18.556-9.1435-18.556-20.423c0-11.279 8.3078-20.423 18.556-20.423s18.556 9.1435 18.556 20.423z" transform="matrix(.26161 0 .040177 .54149 435.92 60.018)"/>
    <path id="path3961" style="color:#000000;fill:#043455" d="m477.48 250.53c76.646-8.6584 310.34 7.6368 254.97 84.969-5.0148 7.0043 2.6403-14.362-0.55901-22.36-7.2316-18.079-33.367-32.701-50.373-39.503-57.05-22.82-179-23.324-204.04-23.106z"/>
    <path id="path3965" style="stroke-opacity:.60262;stroke:#000000;stroke-width:4;fill:none" d="m285.59 137.08c-33.198 18.296-21.995 72.261-28.323 93.106"/>
    <path id="path3967" style="stroke-opacity:.60262;stroke:#000000;stroke-width:4;fill:none" d="m260.19 141.87c-17.821-2.3806-35.876 68.323-27.578 100.25"/>
    <path id="path3969" style="stroke-opacity:.60262;stroke:#000000;stroke-width:4;fill:none" d="m231.06 151.93c-33.371 22.029-21.45 90.74-20.621 100.81"/>
    <path id="path3971" style="stroke-opacity:.60262;stroke:#000000;stroke-width:4;fill:none" d="m200.81 168.88c-18.419 24.965-11.758 75.489-9.6273 86.273"/>
    <path id="path3973" style="stroke-opacity:.60262;stroke:#000000;stroke-width:4;fill:none" d="m181.12 188.26c-9.9697 20.776-9.3285 47.52-5.4658 67.516"/>
    <path id="path3975" style="color:#000000;fill:#075b92" d="m472.67 465.65c-15.491 6.6584-118.84 6.3011-123.35 24.348-3.7122 14.849 82.563 65.813 93.54 71.801 19.984 10.901 37.568 58.333 53.665 42.236 24.032-24.032-12.971-113.38-23.851-138.39z"/>
    <path id="path3977" style="color:#000000;fill:#b1d5ed" d="m178.14 306.1c-56.764-18.409-276.07 8.3339-441.86-12.298"/>
    <path id="path3979" style="color:#000000;fill:#054671" d="m-47.205 351.06c-82.565-17.59-180.98-61.62-266.5-64.13-34.921-1.0248-41.059-0.5727-90.807 1.6149 38.24 3.7888 93.419 17.622 152.79 34.93 75.952 4.6688 136.19 19.552 204.51 27.585z"/>
    <path id="path3983" style="color:#000000;fill-opacity:.58515;fill:#d0e9fb" d="m900.37 148.32c-187.68-103.47-400.61-40.76-600.62-24.09-17.47 1.4558-93.229 42.05-100.12 35.155-4.7692-4.7692 123.03-75.14-48.323-40.87-66.083 13.217-152.38 76.894-213.17 76.894-6.3603 0 9.4579-8.867 15.28-11.429 36.631-16.12 73.517-37.58 108.32-56.52 60.25-32.799 138.8-54.965 212.17-58.887 68.95-3.686 486.34-41.175 626.46 79.747z"/>
    <path id="path3981" style="color:#000000;fill:#4095cd" d="m712.8 338.51c22.28-37.14-201.75-87.17-233.55-89.44-37.706-2.6933 116.76-20.915 144.6-17.64 148.54 17.475 121.8 115.64 270.56-1.2422 11.856-9.3153 19.535-41.191 10.186-56.149-70.675-113.08-333.6-2.2997-421.74 27.081-110.53 36.843-201.34 54.91-300.25 111.43-8.6059 4.9177-83.478 0.78065-83.478 4.472 0 7.7666 161.79 37.33 93.913 79.752-22.411 14.007-100.17-34.248-120-35.901-92.543-7.7119 69.585 59.255-19.255 59.255-64.387 0-116.56-39.182-172.36-2.6087 88.66 27.775 773.64 17.211 831.37-79.006z"/>
  </g>
  <metadata>
    <rdf:RDF>
      <cc:Work>
        <dc:format>image/svg+xml</dc:format>
        <dc:type rdf:resource="http://purl.org/dc/dcmitype/StillImage"/>
        <cc:license rdf:resource="http://creativecommons.org/licenses/publicdomain/"/>
        <dc:publisher>
          <cc:Agent rdf:about="http://openclipart.org/">
            <dc:title>Openclipart</dc:title>
          </cc:Agent>
        </dc:publisher>
        <dc:title>Shark Pure</dc:title>
        <dc:date>2012-09-21T18:08:25</dc:date>
        <dc:description>Shark, solid unshaded</dc:description>
        <dc:source>https://openclipart.org/detail/172430/shark-pure-by-mi_brami-172430</dc:source>
        <dc:creator>
          <cc:Agent>
            <dc:title>mi_brami</dc:title>
          </cc:Agent>
        </dc:creator>
        <dc:subject>
          <rdf:Bag>
            <rdf:li>Blue</rdf:li>
            <rdf:li>Danger</rdf:li>
            <rdf:li>Jaws</rdf:li>
            <rdf:li>Ocean</rdf:li>
            <rdf:li>Sea</rdf:li>
            <rdf:li>Shark</rdf:li>
          </rdf:Bag>
        </dc:subject>
      </cc:Work>
      <cc:License rdf:about="http://creativecommons.org/licenses/publicdomain/">
        <cc:permits rdf:resource="http://creativecommons.org/ns#Reproduction"/>
        <cc:permits rdf:resource="http://creativecommons.org/ns#Distribution"/>
        <cc:permits rdf:resource="http://creativecommons.org/ns#DerivativeWorks"/>
      </cc:License>
    </rdf:RDF>
  </metadata>
</svg>
